# xmcd
#
# Track frame offsets:
# 150
# 26483
# 39430
# 60662
# 77602
# 97374
# 117837
# 139336
# 153049
# 170060
# 187101
#
# Disc length: 2732 seconds
#
#
# Revision: 0
# Processed by: cddbd v1.5.1PL2 Copyright (c) Steve Scherf et al.
# Submitted via: FreeRIP 2.945 
#
DISCID=920aaa0b
DTITLE=LOS GALANES - DE LO GALAN A LO POPULAR
DYEAR=2003
DGENRE=Pop-Folk
TTITLE0=CHAN CHAN
TTITLE1=SON DE LA LOMA
TTITLE2=BESAME MUCHO
TTITLE3=CACHITA
TTITLE4=EL BODEGUERO
TTITLE5=GUANTANAMERA
TTITLE6=YOLANDA
TTITLE7=MERECUMBE
TTITLE8=HASTA SIEMPRE COMANDANTE
TTITLE9=LA MUJER DE ANTONIO
TTITLE10=MOLIENDO CAFE'
EXTD=
EXTT0=CHAN CHAN
EXTT1=SON DE LA LOMA
EXTT2=BESAME MUCHO
EXTT3=CACHITA
EXTT4=EL BODEGUERO
EXTT5=GUANTANAMERA
EXTT6=YOLANDA
EXTT7=MERECUMBE
EXTT8=HASTA SIEMPRE COMANDANTE
EXTT9=LA MUJER DE ANTONIO
EXTT10=
PLAYORDER=
